<?xml version="1.0" encoding="utf-8" ?>
<svg baseProfile="tiny" height="544" version="1.2" width="544" xmlns="http://www.w3.org/2000/svg" xmlns:ev="http://www.w3.org/2001/xml-events" xmlns:xlink="http://www.w3.org/1999/xlink"><defs /><rect fill="#212121" height="544" width="544" x="0" y="0" /><text fill="#e5e5e5" x="5" y="50">8</text><text fill="#e5e5e5" x="533" y="50">8</text><rect fill="#ffce9e" height="64" width="64" x="16" y="464" /><text fill="#e5e5e5" x="5" y="114">7</text><text fill="#e5e5e5" x="533" y="114">7</text><rect fill="#d18b47" height="64" width="64" x="16" y="400" /><text fill="#e5e5e5" x="5" y="178">6</text><text fill="#e5e5e5" x="533" y="178">6</text><rect fill="#ffce9e" height="64" width="64" x="16" y="336" /><text fill="#e5e5e5" x="5" y="242">5</text><text fill="#e5e5e5" x="533" y="242">5</text><rect fill="#d18b47" height="64" width="64" x="16" y="272" /><text fill="#e5e5e5" x="5" y="306">4</text><text fill="#e5e5e5" x="533" y="306">4</text><rect fill="#ffce9e" height="64" width="64" x="16" y="208" /><text fill="#e5e5e5" x="5" y="370">3</text><text fill="#e5e5e5" x="533" y="370">3</text><rect fill="#d18b47" height="64" width="64" x="16" y="144" /><text fill="#e5e5e5" x="5" y="434">2</text><text fill="#e5e5e5" x="533" y="434">2</text><rect fill="#ffce9e" height="64" width="64" x="16" y="80" /><text fill="#e5e5e5" x="5" y="498">1</text><text fill="#e5e5e5" x="533" y="498">1</text><rect fill="#d18b47" height="64" width="64" x="16" y="16" /><text fill="#e5e5e5" x="46" y="12">a</text><text fill="#e5e5e5" x="46" y="540">a</text><rect fill="#d18b47" height="64" width="64" x="80" y="464" /><rect fill="#ffce9e" height="64" width="64" x="80" y="400" /><rect fill="#d18b47" height="64" width="64" x="80" y="336" /><rect fill="#ffce9e" height="64" width="64" x="80" y="272" /><rect fill="#d18b47" height="64" width="64" x="80" y="208" /><rect fill="#ffce9e" height="64" width="64" x="80" y="144" /><rect fill="#d18b47" height="64" width="64" x="80" y="80" /><rect fill="#ffce9e" height="64" width="64" x="80" y="16" /><text fill="#e5e5e5" x="110" y="12">b</text><text fill="#e5e5e5" x="110" y="540">b</text><rect fill="#ffce9e" height="64" width="64" x="144" y="464" /><rect fill="#d18b47" height="64" width="64" x="144" y="400" /><rect fill="#ffce9e" height="64" width="64" x="144" y="336" /><g><circle cx="176" cy="368" fill="red" r="24.0" /><circle cx="176" cy="368" fill="black" r="21.3333" /></g><rect fill="#d18b47" height="64" width="64" x="144" y="272" /><rect fill="#ffce9e" height="64" width="64" x="144" y="208" /><g><circle cx="176" cy="240" fill="red" r="24.0" /><circle cx="176" cy="240" fill="black" r="21.3333" /></g><rect fill="#d18b47" height="64" width="64" x="144" y="144" /><rect fill="#ffce9e" height="64" width="64" x="144" y="80" /><rect fill="#d18b47" height="64" width="64" x="144" y="16" /><text fill="#e5e5e5" x="174" y="12">c</text><text fill="#e5e5e5" x="174" y="540">c</text><rect fill="#d18b47" height="64" width="64" x="208" y="464" /><rect fill="#ffce9e" height="64" width="64" x="208" y="400" /><g><circle cx="240" cy="432" fill="black" r="24.0" /><circle cx="240" cy="432" fill="red" r="21.3333" /><g transform="translate(225.6, 400.0)"><g transform="matrix(0.8,0,0,-0.8,0,47.5)" id="g10"><g id="g12"><g clip-path="url(#clipPath16)" id="g14"><g transform="translate(19.9346,11.5146)" id="g20"><path id="path22" style="fill:#f4900c;fill-opacity:1;fill-rule:nonzero;stroke:none" d="m 0,0 c -0.517,-0.781 -1.353,-0.781 -1.869,0 l -4.678,5.071 c -0.516,0.782 -0.516,2.048 0,2.828 l 4.678,9.072 c 0.516,0.78 1.352,0.78 1.869,0 L 4.678,7.899 c 0.516,-0.78 0.516,-2.046 0,-2.828 L 0,0 Z" /></g><g transform="translate(29.4346,9.5146)" id="g24"><path id="path26" style="fill:#f4900c;fill-opacity:1;fill-rule:nonzero;stroke:none" d="m 0,0 c -0.517,-0.781 -1.353,-0.781 -1.869,0 l -4.678,5.071 c -0.516,0.782 -0.516,2.047 0,2.828 l 6.678,9.072 c 0.516,0.78 1.352,0.78 1.869,0 L 4.678,7.899 c 0.516,-0.781 0.516,-2.046 0,-2.828 L 0,0 Z" /></g><g transform="translate(10.4351,9.5146)" id="g28"><path id="path30" style="fill:#f4900c;fill-opacity:1;fill-rule:nonzero;stroke:none" d="m 0,0 c -0.517,-0.781 -1.354,-0.781 -1.871,0 l -4.677,5.071 c -0.516,0.782 -0.516,2.047 0,2.828 l 2.677,9.072 c 0.517,0.78 1.354,0.78 1.871,0 L 4.678,7.899 c 0.516,-0.781 0.516,-2.046 0,-2.828 L 0,0 Z" /></g><g transform="translate(34,26)" id="g32"><path id="path34" style="fill:#ffcc4d;fill-opacity:1;fill-rule:nonzero;stroke:none" d="m 0,0 c -0.45,-0.45 -2.12,-2.124 -4,-4.369 l -4.565,8.854 c -0.517,0.781 -1.353,0.781 -1.87,0 L -15,-4.368 -19.565,4.485 c -0.517,0.781 -1.354,0.781 -1.871,0 L -26,-4.368 c -1.88,2.245 -3.55,3.918 -4,4.368 -1,1 -2.485,0.94 -2,-1 1,-4 1,-7 1,-12 l 0,-2 c 0,-2.209 1.791,-4 4,-4 l 24,0 c 2.209,0 4,1.791 4,4 l 0,2 c 0,5 0,8 1,12 0.484,1.94 -1,2 -2,1" /></g><g transform="translate(22,15)" id="g36"><path id="path38" style="fill:#5c913b;fill-opacity:1;fill-rule:nonzero;stroke:none" d="m 0,0 c 0,-1.657 -1.343,-3 -3,-3 -1.657,0 -3,1.343 -3,3 0,1.657 1.343,3 3,3 1.657,0 3,-1.343 3,-3" /></g><g transform="translate(29,15)" id="g40"><path id="path42" style="fill:#5c913b;fill-opacity:1;fill-rule:nonzero;stroke:none" d="m 0,0 c 0,-1.104 -0.896,-2 -2,-2 -1.104,0 -2,0.896 -2,2 0,1.104 0.896,2 2,2 1.104,0 2,-0.896 2,-2" /></g><g transform="translate(36,15)" id="g44"><path id="path46" style="fill:#5c913b;fill-opacity:1;fill-rule:nonzero;stroke:none" d="m 0,0 c 0,-1.104 -0.896,-2 -2,-2 -1.104,0 -2,0.896 -2,2 0,1.104 0.896,2 2,2 1.104,0 2,-0.896 2,-2" /></g><g transform="translate(13,15)" id="g48"><path id="path50" style="fill:#5c913b;fill-opacity:1;fill-rule:nonzero;stroke:none" d="m 0,0 c 0,-1.104 -0.895,-2 -2,-2 -1.104,0 -2,0.896 -2,2 0,1.104 0.896,2 2,2 1.105,0 2,-0.896 2,-2" /></g><g transform="translate(6,15)" id="g52"><path id="path54" style="fill:#5c913b;fill-opacity:1;fill-rule:nonzero;stroke:none" d="m 0,0 c 0,-1.104 -0.895,-2 -2,-2 -1.104,0 -2,0.896 -2,2 0,1.104 0.896,2 2,2 1.105,0 2,-0.896 2,-2" /></g><g transform="translate(35,11)" id="g56"><path id="path58" style="fill:#ffac33;fill-opacity:1;fill-rule:nonzero;stroke:none" d="m 0,0 c 0,-2.209 -1.791,-4 -4,-4 l -24,0 c -2.209,0 -4,1.791 -4,4 L 0,0 Z" /></g></g></g></g></g></g><rect fill="#d18b47" height="64" width="64" x="208" y="336" /><rect fill="#ffce9e" height="64" width="64" x="208" y="272" /><rect fill="#d18b47" height="64" width="64" x="208" y="208" /><rect fill="#ffce9e" height="64" width="64" x="208" y="144" /><rect fill="#d18b47" height="64" width="64" x="208" y="80" /><rect fill="#ffce9e" height="64" width="64" x="208" y="16" /><text fill="#e5e5e5" x="238" y="12">d</text><text fill="#e5e5e5" x="238" y="540">d</text><rect fill="#ffce9e" height="64" width="64" x="272" y="464" /><rect fill="#d18b47" height="64" width="64" x="272" y="400" /><rect fill="#ffce9e" height="64" width="64" x="272" y="336" /><rect fill="#d18b47" height="64" width="64" x="272" y="272" /><rect fill="#ffce9e" height="64" width="64" x="272" y="208" /><rect fill="#d18b47" height="64" width="64" x="272" y="144" /><rect fill="#ffce9e" height="64" width="64" x="272" y="80" /><g><circle cx="304" cy="112" fill="red" r="24.0" /><circle cx="304" cy="112" fill="black" r="21.3333" /></g><rect fill="#d18b47" height="64" width="64" x="272" y="16" /><text fill="#e5e5e5" x="302" y="12">e</text><text fill="#e5e5e5" x="302" y="540">e</text><rect fill="#d18b47" height="64" width="64" x="336" y="464" /><rect fill="#ffce9e" height="64" width="64" x="336" y="400" /><rect fill="#d18b47" height="64" width="64" x="336" y="336" /><rect fill="#ffce9e" height="64" width="64" x="336" y="272" /><rect fill="#d18b47" height="64" width="64" x="336" y="208" /><rect fill="#ffce9e" height="64" width="64" x="336" y="144" /><rect fill="#d18b47" height="64" width="64" x="336" y="80" /><rect fill="#ffce9e" height="64" width="64" x="336" y="16" /><text fill="#e5e5e5" x="366" y="12">f</text><text fill="#e5e5e5" x="366" y="540">f</text><rect fill="#ffce9e" height="64" width="64" x="400" y="464" /><rect fill="#d18b47" height="64" width="64" x="400" y="400" /><rect fill="#ffce9e" height="64" width="64" x="400" y="336" /><rect fill="#d18b47" height="64" width="64" x="400" y="272" /><rect fill="#ffce9e" height="64" width="64" x="400" y="208" /><rect fill="#d18b47" height="64" width="64" x="400" y="144" /><rect fill="#ffce9e" height="64" width="64" x="400" y="80" /><rect fill="#d18b47" height="64" width="64" x="400" y="16" /><text fill="#e5e5e5" x="430" y="12">g</text><text fill="#e5e5e5" x="430" y="540">g</text><rect fill="#d18b47" height="64" width="64" x="464" y="464" /><rect fill="#ffce9e" height="64" width="64" x="464" y="400" /><rect fill="#d18b47" height="64" width="64" x="464" y="336" /><rect fill="#ffce9e" height="64" width="64" x="464" y="272" /><rect fill="#d18b47" height="64" width="64" x="464" y="208" /><rect fill="#ffce9e" height="64" width="64" x="464" y="144" /><rect fill="#d18b47" height="64" width="64" x="464" y="80" /><rect fill="#ffce9e" height="64" width="64" x="464" y="16" /><text fill="#e5e5e5" x="494" y="12">h</text><text fill="#e5e5e5" x="494" y="540">h</text></svg>